<?xml version="1.0" standalone="no"?>
<!DOCTYPE svg PUBLIC "-//W3C//DTD SVG 20010904//EN"
 "http://www.w3.org/TR/2001/REC-SVG-20010904/DTD/svg10.dtd">
<svg version="1.0" xmlns="http://www.w3.org/2000/svg"
 width="200.000000pt" height="200.000000pt" viewBox="0 0 200.000000 200.000000"
 preserveAspectRatio="xMidYMid meet">

<g transform="translate(0.000000,200.000000) scale(0.100000,-0.100000)"
fill="#ffffff" stroke="none">
<path d="M880 1994 c-187 -35 -299 -76 -425 -158 -212 -138 -364 -354 -428
-606 -29 -115 -30 -329 -3 -445 89 -382 380 -673 761 -761 118 -28 330 -26
449 4 172 43 346 142 471 267 368 367 393 946 58 1349 -130 157 -321 275 -528
327 -77 20 -297 34 -355 23z m283 -158 c396 -76 687 -430 687 -836 0 -231 -85
-434 -250 -600 -166 -165 -369 -250 -600 -250 -680 0 -1083 757 -705 1325 120
181 323 318 534 360 89 18 243 18 334 1z"/>
<path d="M925 1616 c-12 -18 -19 -86 -30 -292 -18 -325 -18 -432 -2 -460 7
-12 106 -105 222 -208 175 -155 215 -186 241 -186 30 0 65 27 76 60 11 30 -18
70 -176 252 -88 101 -166 190 -173 199 -10 12 -17 96 -28 319 -16 335 -17 340
-81 340 -24 0 -38 -7 -49 -24z"/>
</g>
</svg>
