<?xml version="1.0" standalone="no"?>
<!DOCTYPE svg PUBLIC "-//W3C//DTD SVG 20010904//EN"
 "http://www.w3.org/TR/2001/REC-SVG-20010904/DTD/svg10.dtd">
<svg version="1.0" xmlns="http://www.w3.org/2000/svg"
 width="251.000000pt" height="238.000000pt" viewBox="0 0 251.000000 238.000000"
 preserveAspectRatio="xMidYMid meet">

<g transform="translate(0.000000,238.000000) scale(0.100000,-0.100000)"
fill="#ffffff" stroke="none">
<path d="M2000 2335 c-7 -8 -20 -15 -29 -15 -9 0 -31 -9 -49 -20 -41 -25 -71
-25 -202 0 -112 21 -200 26 -200 11 0 -6 14 -18 30 -28 17 -9 30 -25 30 -34 0
-50 36 -66 62 -27 11 16 20 20 41 14 17 -4 27 -13 27 -25 0 -52 36 -69 62 -30
20 31 48 18 81 -38 24 -39 28 -54 23 -86 -9 -55 -21 -74 -64 -101 -43 -27
-200 -89 -222 -87 -8 1 -80 3 -160 4 -136 4 -180 10 -180 26 0 4 14 11 32 16
29 9 34 16 47 69 11 46 11 66 2 91 -6 17 -11 64 -11 104 0 40 -4 80 -10 90
-21 40 -136 67 -217 52 -110 -21 -157 -82 -156 -204 0 -81 21 -128 75 -167 74
-54 72 -76 -12 -113 -25 -11 -60 -30 -77 -44 -44 -32 -107 -127 -145 -215 -29
-68 -29 -73 -14 -99 9 -16 16 -49 16 -81 0 -60 15 -81 97 -131 23 -15 44 -31
48 -37 3 -5 0 -45 -9 -88 -8 -42 -17 -99 -21 -127 -3 -27 -15 -88 -26 -134
l-21 -83 26 -27 c36 -37 32 -52 -19 -83 -27 -16 -79 -70 -138 -145 -115 -144
-131 -158 -185 -173 -51 -13 -82 -41 -82 -73 0 -42 49 -219 66 -238 18 -20 39
-25 48 -11 2 4 7 38 11 75 3 37 10 80 16 95 13 34 78 101 194 201 105 90 144
119 199 146 23 11 52 37 65 58 16 24 32 37 46 37 12 0 34 13 50 30 31 32 46
30 95 -16 14 -12 40 -24 58 -26 31 -3 36 -8 58 -62 13 -32 47 -93 76 -135 133
-194 129 -187 140 -263 5 -40 15 -78 21 -85 8 -8 57 -13 134 -15 105 -3 125
-1 139 14 26 26 5 63 -43 78 -73 23 -101 41 -132 85 -92 129 -201 420 -201
538 0 16 -9 42 -20 58 -71 98 -100 249 -105 547 l-4 223 32 14 c18 7 55 16 82
20 37 5 57 15 77 36 15 16 35 29 45 29 25 0 162 79 214 124 24 20 59 41 80 46
43 12 84 50 94 88 8 34 53 100 76 113 31 16 69 -6 69 -40 0 -38 28 -50 52 -22
23 29 58 28 58 -2 0 -13 7 -32 15 -43 15 -19 16 -18 40 10 25 27 28 28 68 18
72 -19 75 18 5 58 -22 13 -91 44 -152 71 -110 47 -111 48 -143 104 -18 32 -33
66 -33 76 0 23 -23 25 -40 4z m-1060 -956 c0 -24 -23 -21 -28 4 -2 10 3 17 12
17 10 0 16 -9 16 -21z"/>
</g>
</svg>
