<?xml version="1.0" standalone="no"?>
<!DOCTYPE svg PUBLIC "-//W3C//DTD SVG 20010904//EN"
 "http://www.w3.org/TR/2001/REC-SVG-20010904/DTD/svg10.dtd">
<svg version="1.0" xmlns="http://www.w3.org/2000/svg"
 width="174.000000pt" height="203.000000pt" viewBox="0 0 174.000000 203.000000"
 preserveAspectRatio="xMidYMid meet">

<g transform="translate(0.000000,203.000000) scale(0.100000,-0.100000)"
fill="#ffffff" stroke="none">
<path d="M721 1857 c-16 -4 -41 -22 -55 -40 -14 -17 -33 -41 -43 -51 -10 -11
-31 -47 -48 -80 -28 -56 -33 -61 -62 -61 -40 0 -41 -5 -8 -33 19 -17 30 -20
48 -13 33 13 87 66 87 86 0 14 3 15 15 5 8 -7 15 -17 15 -23 0 -5 11 -25 25
-43 35 -45 32 -59 -19 -84 -59 -28 -115 -103 -170 -226 -51 -115 -105 -211
-135 -238 -12 -11 -21 -27 -21 -37 0 -10 -13 -33 -29 -51 -18 -22 -30 -49 -34
-78 -3 -25 -13 -76 -22 -115 -8 -38 -18 -111 -22 -160 -5 -86 -5 -92 19 -120
14 -17 27 -39 29 -50 4 -17 13 -20 74 -23 38 -2 74 -7 80 -12 6 -5 17 -5 25 0
18 11 3 75 -41 170 -58 125 -68 370 -15 370 15 0 136 126 136 141 0 5 5 9 10
9 6 0 10 -82 10 -226 l0 -226 34 -101 c43 -131 76 -251 76 -277 0 -11 -11 -43
-25 -70 -38 -74 -35 -84 23 -76 64 9 120 35 128 58 3 11 2 36 -2 56 -9 46 -5
502 5 521 7 12 17 -53 41 -265 5 -45 14 -93 20 -108 5 -15 7 -45 4 -66 -6 -36
-3 -43 29 -75 40 -40 81 -46 118 -16 l24 19 -21 24 c-12 12 -29 38 -39 57 -15
31 -16 39 -1 115 8 44 17 99 18 121 4 52 25 56 73 14 31 -28 40 -31 56 -21 51
32 68 -11 24 -62 -30 -35 -30 -38 -5 -61 19 -17 23 -17 60 -2 l40 15 22 -31
c12 -18 29 -38 38 -44 13 -11 12 -15 -10 -32 -20 -16 -22 -21 -11 -35 8 -9 29
-16 47 -16 40 0 44 -12 9 -28 -51 -23 -24 -47 41 -37 36 5 49 13 65 38 10 18
19 50 19 73 0 23 7 58 15 77 8 20 15 50 15 67 0 17 7 42 16 55 21 32 10 65
-21 65 -13 0 -28 -8 -34 -18 -8 -15 -16 -10 -63 39 -29 30 -63 62 -75 70 -25
15 -31 49 -19 114 9 55 -8 137 -39 184 -19 29 -24 45 -19 66 5 19 1 34 -13 53
-10 15 -50 85 -88 156 -85 157 -135 216 -210 246 -30 12 -55 27 -55 32 0 6 11
19 25 30 22 17 25 27 25 85 0 47 3 64 13 61 7 -3 13 -28 15 -67 3 -64 23 -111
47 -111 9 0 15 32 20 110 8 128 1 145 -51 137 -28 -5 -33 -2 -48 29 -9 19 -28
39 -43 45 -28 10 -113 9 -162 -4z m358 -787 c20 -24 41 -53 46 -65 6 -11 20
-21 32 -23 31 -5 61 -43 64 -82 2 -19 -3 -63 -10 -98 -13 -58 -15 -61 -31 -47
-9 8 -35 15 -58 15 -23 0 -42 4 -42 8 0 5 -6 17 -14 27 -12 17 -15 18 -37 3
l-24 -15 0 192 c0 192 0 192 19 161 10 -17 35 -51 55 -76z"/>
</g>
</svg>
